<svg viewBox="0 0 1000 120" width="100%" height="120" xmlns="http://www.w3.org/2000/svg">
  <path d="
    M 0 60 
    H 50
    l 15 -25 l 15 50 l 15 -80 l 15 100 l 15 -40 H 200
    l 15 -25 l 15 50 l 15 -80 l 15 100 l 15 -40 H 400
    l 15 -25 l 15 50 l 15 -80 l 15 100 l 15 -40 H 600
    l 15 -25 l 15 50 l 15 -80 l 15 100 l 15 -40 H 800
    l 15 -25 l 15 50 l 15 -80 l 15 100 l 15 -40 H 1000
  " 
  fill="none" 
  stroke="black" 
  stroke-width="4" 
  stroke-linecap="round" 
  stroke-linejoin="round"
  stroke-dasharray="1000"
  stroke-dashoffset="1000">
    <animate attributeName="stroke-dashoffset" from="1000" to="-1000" dur="8s" repeatCount="indefinite"/>
  </path>
</svg>