<svg width="301" height="93" viewBox="0 0 301 93" fill="none" xmlns="http://www.w3.org/2000/svg">
<mask id="path-1-outside-1_7_32" maskUnits="userSpaceOnUse" x="112.047" y="21.0002" width="184" height="49" fill="black">
<rect fill="white" x="112.047" y="21.0002" width="184" height="49"/>
<path d="M113.641 30.3127V22.1877H122.422V30.3127H113.641ZM113.641 68.0002V34.8127H122.422V68.0002H113.641ZM131.516 68.0002V22.1877H146.36C151.985 22.1877 155.651 22.4169 157.36 22.8752C159.985 23.5627 162.182 25.0627 163.953 27.3752C165.724 29.6669 166.61 32.6357 166.61 36.2815C166.61 39.094 166.099 41.4586 165.078 43.3752C164.057 45.2919 162.755 46.8023 161.172 47.9065C159.61 48.9898 158.016 49.7086 156.391 50.0627C154.182 50.5002 150.985 50.719 146.797 50.719H140.766V68.0002H131.516ZM140.766 29.9377V42.9377H145.828C149.474 42.9377 151.912 42.6982 153.141 42.219C154.37 41.7398 155.328 40.9898 156.016 39.969C156.724 38.9482 157.078 37.7607 157.078 36.4065C157.078 34.7398 156.589 33.3648 155.61 32.2815C154.63 31.1982 153.391 30.5211 151.891 30.2502C150.787 30.0419 148.568 29.9377 145.235 29.9377H140.766ZM195.985 68.0002V63.0315C194.776 64.8023 193.182 66.1982 191.203 67.219C189.245 68.2398 187.172 68.7502 184.985 68.7502C182.755 68.7502 180.755 68.2607 178.985 67.2815C177.214 66.3023 175.932 64.9273 175.141 63.1565C174.349 61.3857 173.953 58.9377 173.953 55.8127V34.8127H182.735V50.0627C182.735 54.7294 182.891 57.594 183.203 58.6565C183.537 59.6982 184.13 60.5315 184.985 61.1565C185.839 61.7607 186.922 62.0627 188.235 62.0627C189.735 62.0627 191.078 61.6565 192.266 60.844C193.453 60.0107 194.266 58.9898 194.703 57.7815C195.141 56.5523 195.36 53.5627 195.36 48.8127V34.8127H204.141V68.0002H195.985ZM213.266 68.0002V22.1877H222.047V68.0002H213.266ZM227.985 58.5315L236.797 57.1877C237.172 58.8961 237.932 60.1982 239.078 61.094C240.224 61.969 241.828 62.4065 243.891 62.4065C246.162 62.4065 247.87 61.9898 249.016 61.1565C249.787 60.5732 250.172 59.7919 250.172 58.8127C250.172 58.1461 249.964 57.594 249.547 57.1565C249.11 56.7398 248.13 56.3544 246.61 56.0002C239.526 54.4377 235.037 53.0107 233.141 51.719C230.516 49.9273 229.203 47.4377 229.203 44.2502C229.203 41.3752 230.339 38.9586 232.61 37.0002C234.88 35.0419 238.401 34.0627 243.172 34.0627C247.714 34.0627 251.089 34.8023 253.297 36.2815C255.505 37.7607 257.026 39.9482 257.86 42.844L249.578 44.3752C249.224 43.0836 248.547 42.094 247.547 41.4065C246.568 40.719 245.162 40.3752 243.328 40.3752C241.016 40.3752 239.36 40.6982 238.36 41.344C237.693 41.8023 237.36 42.3961 237.36 43.1252C237.36 43.7502 237.651 44.2815 238.235 44.719C239.026 45.3023 241.755 46.1252 246.422 47.1877C251.11 48.2502 254.38 49.5523 256.235 51.094C258.068 52.6565 258.985 54.8336 258.985 57.6252C258.985 60.6669 257.714 63.2815 255.172 65.469C252.63 67.6565 248.87 68.7502 243.891 68.7502C239.37 68.7502 235.787 67.8336 233.141 66.0002C230.516 64.1669 228.797 61.6773 227.985 58.5315ZM285.922 57.4377L294.672 58.9065C293.547 62.1148 291.766 64.5627 289.328 66.2502C286.912 67.9169 283.88 68.7502 280.235 68.7502C274.464 68.7502 270.193 66.8648 267.422 63.094C265.235 60.0732 264.141 56.2607 264.141 51.6565C264.141 46.1565 265.578 41.8544 268.453 38.7502C271.328 35.6252 274.964 34.0627 279.36 34.0627C284.297 34.0627 288.193 35.6982 291.047 38.969C293.901 42.219 295.266 47.2086 295.141 53.9377H273.141C273.203 56.5419 273.912 58.5732 275.266 60.0315C276.62 61.469 278.307 62.1877 280.328 62.1877C281.703 62.1877 282.86 61.8127 283.797 61.0627C284.735 60.3127 285.443 59.1044 285.922 57.4377ZM286.422 48.5627C286.36 46.0211 285.703 44.094 284.453 42.7815C283.203 41.4482 281.682 40.7815 279.891 40.7815C277.974 40.7815 276.391 41.4794 275.141 42.8752C273.891 44.2711 273.276 46.1669 273.297 48.5627H286.422Z"/>
</mask>
<path d="M113.641 30.3127V22.1877H122.422V30.3127H113.641ZM113.641 68.0002V34.8127H122.422V68.0002H113.641ZM131.516 68.0002V22.1877H146.36C151.985 22.1877 155.651 22.4169 157.36 22.8752C159.985 23.5627 162.182 25.0627 163.953 27.3752C165.724 29.6669 166.61 32.6357 166.61 36.2815C166.61 39.094 166.099 41.4586 165.078 43.3752C164.057 45.2919 162.755 46.8023 161.172 47.9065C159.61 48.9898 158.016 49.7086 156.391 50.0627C154.182 50.5002 150.985 50.719 146.797 50.719H140.766V68.0002H131.516ZM140.766 29.9377V42.9377H145.828C149.474 42.9377 151.912 42.6982 153.141 42.219C154.37 41.7398 155.328 40.9898 156.016 39.969C156.724 38.9482 157.078 37.7607 157.078 36.4065C157.078 34.7398 156.589 33.3648 155.61 32.2815C154.63 31.1982 153.391 30.5211 151.891 30.2502C150.787 30.0419 148.568 29.9377 145.235 29.9377H140.766ZM195.985 68.0002V63.0315C194.776 64.8023 193.182 66.1982 191.203 67.219C189.245 68.2398 187.172 68.7502 184.985 68.7502C182.755 68.7502 180.755 68.2607 178.985 67.2815C177.214 66.3023 175.932 64.9273 175.141 63.1565C174.349 61.3857 173.953 58.9377 173.953 55.8127V34.8127H182.735V50.0627C182.735 54.7294 182.891 57.594 183.203 58.6565C183.537 59.6982 184.13 60.5315 184.985 61.1565C185.839 61.7607 186.922 62.0627 188.235 62.0627C189.735 62.0627 191.078 61.6565 192.266 60.844C193.453 60.0107 194.266 58.9898 194.703 57.7815C195.141 56.5523 195.36 53.5627 195.36 48.8127V34.8127H204.141V68.0002H195.985ZM213.266 68.0002V22.1877H222.047V68.0002H213.266ZM227.985 58.5315L236.797 57.1877C237.172 58.8961 237.932 60.1982 239.078 61.094C240.224 61.969 241.828 62.4065 243.891 62.4065C246.162 62.4065 247.87 61.9898 249.016 61.1565C249.787 60.5732 250.172 59.7919 250.172 58.8127C250.172 58.1461 249.964 57.594 249.547 57.1565C249.11 56.7398 248.13 56.3544 246.61 56.0002C239.526 54.4377 235.037 53.0107 233.141 51.719C230.516 49.9273 229.203 47.4377 229.203 44.2502C229.203 41.3752 230.339 38.9586 232.61 37.0002C234.88 35.0419 238.401 34.0627 243.172 34.0627C247.714 34.0627 251.089 34.8023 253.297 36.2815C255.505 37.7607 257.026 39.9482 257.86 42.844L249.578 44.3752C249.224 43.0836 248.547 42.094 247.547 41.4065C246.568 40.719 245.162 40.3752 243.328 40.3752C241.016 40.3752 239.36 40.6982 238.36 41.344C237.693 41.8023 237.36 42.3961 237.36 43.1252C237.36 43.7502 237.651 44.2815 238.235 44.719C239.026 45.3023 241.755 46.1252 246.422 47.1877C251.11 48.2502 254.38 49.5523 256.235 51.094C258.068 52.6565 258.985 54.8336 258.985 57.6252C258.985 60.6669 257.714 63.2815 255.172 65.469C252.63 67.6565 248.87 68.7502 243.891 68.7502C239.37 68.7502 235.787 67.8336 233.141 66.0002C230.516 64.1669 228.797 61.6773 227.985 58.5315ZM285.922 57.4377L294.672 58.9065C293.547 62.1148 291.766 64.5627 289.328 66.2502C286.912 67.9169 283.88 68.7502 280.235 68.7502C274.464 68.7502 270.193 66.8648 267.422 63.094C265.235 60.0732 264.141 56.2607 264.141 51.6565C264.141 46.1565 265.578 41.8544 268.453 38.7502C271.328 35.6252 274.964 34.0627 279.36 34.0627C284.297 34.0627 288.193 35.6982 291.047 38.969C293.901 42.219 295.266 47.2086 295.141 53.9377H273.141C273.203 56.5419 273.912 58.5732 275.266 60.0315C276.62 61.469 278.307 62.1877 280.328 62.1877C281.703 62.1877 282.86 61.8127 283.797 61.0627C284.735 60.3127 285.443 59.1044 285.922 57.4377ZM286.422 48.5627C286.36 46.0211 285.703 44.094 284.453 42.7815C283.203 41.4482 281.682 40.7815 279.891 40.7815C277.974 40.7815 276.391 41.4794 275.141 42.8752C273.891 44.2711 273.276 46.1669 273.297 48.5627H286.422Z" fill="white"/>
<path d="M113.641 30.3127H112.941V31.0127H113.641V30.3127ZM113.641 22.1877V21.4877H112.941V22.1877H113.641ZM122.422 22.1877H123.122V21.4877H122.422V22.1877ZM122.422 30.3127V31.0127H123.122V30.3127H122.422ZM113.641 68.0002H112.941V68.7002H113.641V68.0002ZM113.641 34.8127V34.1127H112.941V34.8127H113.641ZM122.422 34.8127H123.122V34.1127H122.422V34.8127ZM122.422 68.0002V68.7002H123.122V68.0002H122.422ZM113.641 30.3127H114.341V22.1877H113.641H112.941V30.3127H113.641ZM113.641 22.1877V22.8877H122.422V22.1877V21.4877H113.641V22.1877ZM122.422 22.1877H121.722V30.3127H122.422H123.122V22.1877H122.422ZM122.422 30.3127V29.6127H113.641V30.3127V31.0127H122.422V30.3127ZM113.641 68.0002H114.341V34.8127H113.641H112.941V68.0002H113.641ZM113.641 34.8127V35.5127H122.422V34.8127V34.1127H113.641V34.8127ZM122.422 34.8127H121.722V68.0002H122.422H123.122V34.8127H122.422ZM122.422 68.0002V67.3002H113.641V68.0002V68.7002H122.422V68.0002ZM131.516 68.0002H130.816V68.7002H131.516V68.0002ZM131.516 22.1877V21.4877H130.816V22.1877H131.516ZM157.36 22.8752L157.178 23.5513L157.182 23.5524L157.36 22.8752ZM163.953 27.3752L163.398 27.8008L163.399 27.8033L163.953 27.3752ZM161.172 47.9065L161.571 48.4818L161.572 48.4807L161.172 47.9065ZM156.391 50.0627L156.527 50.7495L156.54 50.7467L156.391 50.0627ZM140.766 50.719V50.019H140.066V50.719H140.766ZM140.766 68.0002V68.7002H141.466V68.0002H140.766ZM140.766 29.9377V29.2377H140.066V29.9377H140.766ZM140.766 42.9377H140.066V43.6377H140.766V42.9377ZM156.016 39.969L155.441 39.5699L155.435 39.578L156.016 39.969ZM151.891 30.2502L151.761 30.9381L151.766 30.9391L151.891 30.2502ZM131.516 68.0002H132.216V22.1877H131.516H130.816V68.0002H131.516ZM131.516 22.1877V22.8877H146.36V22.1877V21.4877H131.516V22.1877ZM146.36 22.1877V22.8877C152.005 22.8877 155.575 23.1212 157.178 23.5513L157.36 22.8752L157.541 22.1992C155.727 21.7126 151.964 21.4877 146.36 21.4877V22.1877ZM157.36 22.8752L157.182 23.5524C159.645 24.1975 161.714 25.6023 163.398 27.8008L163.953 27.3752L164.509 26.9497C162.651 24.5232 160.324 22.928 157.537 22.1981L157.36 22.8752ZM163.953 27.3752L163.399 27.8033C165.053 29.9436 165.91 32.7498 165.91 36.2815H166.61H167.31C167.31 32.5215 166.395 29.3902 164.507 26.9472L163.953 27.3752ZM166.61 36.2815H165.91C165.91 39.0121 165.414 41.2563 164.46 43.0462L165.078 43.3752L165.696 43.7043C166.785 41.6609 167.31 39.1759 167.31 36.2815H166.61ZM165.078 43.3752L164.46 43.0462C163.485 44.8774 162.253 46.2991 160.772 47.3323L161.172 47.9065L161.572 48.4807C163.257 47.3056 164.63 45.7064 165.696 43.7043L165.078 43.3752ZM161.172 47.9065L160.773 47.3312C159.275 48.3698 157.765 49.0468 156.242 49.3788L156.391 50.0627L156.54 50.7467C158.266 50.3704 159.944 49.6099 161.571 48.4818L161.172 47.9065ZM156.391 50.0627L156.255 49.3761C154.114 49.8001 150.971 50.019 146.797 50.019V50.719V51.419C150.998 51.419 154.251 51.2003 156.527 50.7494L156.391 50.0627ZM146.797 50.719V50.019H140.766V50.719V51.419H146.797V50.719ZM140.766 50.719H140.066V68.0002H140.766H141.466V50.719H140.766ZM140.766 68.0002V67.3002H131.516V68.0002V68.7002H140.766V68.0002ZM140.766 29.9377H140.066V42.9377H140.766H141.466V29.9377H140.766ZM140.766 42.9377V43.6377H145.828V42.9377V42.2377H140.766V42.9377ZM145.828 42.9377V43.6377C147.664 43.6377 149.21 43.5775 150.459 43.4547C151.697 43.333 152.69 43.146 153.395 42.8712L153.141 42.219L152.887 41.5668C152.362 41.7711 151.522 41.9435 150.322 42.0614C149.134 42.1782 147.638 42.2377 145.828 42.2377V42.9377ZM153.141 42.219L153.395 42.8712C154.747 42.3442 155.823 41.5078 156.596 40.36L156.016 39.969L155.435 39.578C154.833 40.4719 153.993 41.1355 152.887 41.5668L153.141 42.219ZM156.016 39.969L156.591 40.3681C157.388 39.2194 157.778 37.8899 157.778 36.4065H157.078H156.378C156.378 37.6315 156.06 38.6769 155.441 39.5699L156.016 39.969ZM157.078 36.4065H157.778C157.778 34.5926 157.241 33.0423 156.129 31.8121L155.61 32.2815L155.09 32.7509C155.937 33.6873 156.378 34.887 156.378 36.4065H157.078ZM155.61 32.2815L156.129 31.8121C155.041 30.6087 153.66 29.8584 152.015 29.5614L151.891 30.2502L151.766 30.9391C153.121 31.1837 154.22 31.7876 155.09 32.7509L155.61 32.2815ZM151.891 30.2502L152.021 29.5624C150.842 29.3399 148.557 29.2377 145.235 29.2377V29.9377V30.6377C148.579 30.6377 150.732 30.7439 151.761 30.9381L151.891 30.2502ZM145.235 29.9377V29.2377H140.766V29.9377V30.6377H145.235V29.9377ZM195.985 68.0002H195.285V68.7002H195.985V68.0002ZM195.985 63.0315H196.685V60.7637L195.406 62.6369L195.985 63.0315ZM191.203 67.219L190.882 66.5969L190.88 66.5983L191.203 67.219ZM178.985 67.2815L178.646 67.8941L178.985 67.2815ZM173.953 34.8127V34.1127H173.253V34.8127H173.953ZM182.735 34.8127H183.435V34.1127H182.735V34.8127ZM183.203 58.6565L182.532 58.854L182.534 58.862L182.537 58.8698L183.203 58.6565ZM184.985 61.1565L184.571 61.7215L184.58 61.728L184.985 61.1565ZM192.266 60.844L192.661 61.4217L192.668 61.417L192.266 60.844ZM194.703 57.7815L195.362 58.0198L195.363 58.0162L194.703 57.7815ZM195.36 34.8127V34.1127H194.66V34.8127H195.36ZM204.141 34.8127H204.841V34.1127H204.141V34.8127ZM204.141 68.0002V68.7002H204.841V68.0002H204.141ZM195.985 68.0002H196.685V63.0315H195.985H195.285V68.0002H195.985ZM195.985 63.0315L195.406 62.6369C194.266 64.3079 192.762 65.6272 190.882 66.5969L191.203 67.219L191.524 67.8411C193.603 66.7691 195.286 65.2967 196.563 63.426L195.985 63.0315ZM191.203 67.219L190.88 66.5983C189.02 67.5675 187.058 68.0502 184.985 68.0502V68.7502V69.4502C187.286 69.4502 189.47 68.9121 191.527 67.8397L191.203 67.219ZM184.985 68.7502V68.0502C182.862 68.0502 180.98 67.5851 179.323 66.6689L178.985 67.2815L178.646 67.8941C180.531 68.9363 182.649 69.4502 184.985 69.4502V68.7502ZM178.985 67.2815L179.323 66.6689C177.679 65.7598 176.507 64.4967 175.78 62.8708L175.141 63.1565L174.502 63.4422C175.358 65.358 176.748 66.8448 178.646 67.8941L178.985 67.2815ZM175.141 63.1565L175.78 62.8708C175.046 61.2282 174.653 58.8924 174.653 55.8127H173.953H173.253C173.253 58.983 173.653 61.5431 174.502 63.4422L175.141 63.1565ZM173.953 55.8127H174.653V34.8127H173.953H173.253V55.8127H173.953ZM173.953 34.8127V35.5127H182.735V34.8127V34.1127H173.953V34.8127ZM182.735 34.8127H182.035V50.0627H182.735H183.435V34.8127H182.735ZM182.735 50.0627H182.035C182.035 52.402 182.074 54.299 182.153 55.7493C182.231 57.1767 182.35 58.2348 182.532 58.854L183.203 58.6565L183.875 58.459C183.744 58.0157 183.629 57.1103 183.551 55.6731C183.474 54.2588 183.435 52.3902 183.435 50.0627H182.735ZM183.203 58.6565L182.537 58.8698C182.913 60.0475 183.593 61.0059 184.571 61.7214L184.985 61.1565L185.398 60.5916C184.667 60.0571 184.16 59.3488 183.87 58.4431L183.203 58.6565ZM184.985 61.1565L184.58 61.728C185.58 62.4349 186.814 62.7627 188.235 62.7627V62.0627V61.3627C187.03 61.3627 186.098 61.0864 185.389 60.585L184.985 61.1565ZM188.235 62.0627V62.7627C189.869 62.7627 191.352 62.3174 192.661 61.4217L192.266 60.844L191.871 60.2663C190.805 60.9956 189.6 61.3627 188.235 61.3627V62.0627ZM192.266 60.844L192.668 61.417C193.957 60.5121 194.869 59.3804 195.361 58.0198L194.703 57.7815L194.045 57.5432C193.663 58.5993 192.949 59.5092 191.864 60.271L192.266 60.844ZM194.703 57.7815L195.363 58.0162C195.616 57.3045 195.784 56.1662 195.894 54.6685C196.005 53.1499 196.06 51.1962 196.06 48.8127H195.36H194.66C194.66 51.1793 194.605 53.0954 194.497 54.5663C194.388 56.0582 194.228 57.0293 194.044 57.5468L194.703 57.7815ZM195.36 48.8127H196.06V34.8127H195.36H194.66V48.8127H195.36ZM195.36 34.8127V35.5127H204.141V34.8127V34.1127H195.36V34.8127ZM204.141 34.8127H203.441V68.0002H204.141H204.841V34.8127H204.141ZM204.141 68.0002V67.3002H195.985V68.0002V68.7002H204.141V68.0002ZM213.266 68.0002H212.566V68.7002H213.266V68.0002ZM213.266 22.1877V21.4877H212.566V22.1877H213.266ZM222.047 22.1877H222.747V21.4877H222.047V22.1877ZM222.047 68.0002V68.7002H222.747V68.0002H222.047ZM213.266 68.0002H213.966V22.1877H213.266H212.566V68.0002H213.266ZM213.266 22.1877V22.8877H222.047V22.1877V21.4877H213.266V22.1877ZM222.047 22.1877H221.347V68.0002H222.047H222.747V22.1877H222.047ZM222.047 68.0002V67.3002H213.266V68.0002V68.7002H222.047V68.0002ZM227.985 58.5315L227.879 57.8395L227.113 57.9563L227.307 58.7065L227.985 58.5315ZM236.797 57.1877L237.481 57.0377L237.34 56.3968L236.692 56.4957L236.797 57.1877ZM239.078 61.094L238.647 61.6455L238.653 61.6503L239.078 61.094ZM249.016 61.1565L249.428 61.7227L249.438 61.7147L249.016 61.1565ZM249.547 57.1565L250.054 56.6737L250.042 56.6614L250.03 56.6496L249.547 57.1565ZM246.61 56.0002L246.768 55.3184L246.76 55.3167L246.61 56.0002ZM233.141 51.719L232.746 52.2972L232.747 52.2975L233.141 51.719ZM253.297 36.2815L253.687 35.6999L253.297 36.2815ZM257.86 42.844L257.987 43.5323L258.746 43.392L258.532 42.6504L257.86 42.844ZM249.578 44.3752L248.903 44.5603L249.073 45.1805L249.706 45.0636L249.578 44.3752ZM247.547 41.4065L247.145 41.9794L247.15 41.9833L247.547 41.4065ZM238.36 41.344L237.98 40.756L237.971 40.7614L237.963 40.7672L238.36 41.344ZM238.235 44.719L237.815 45.279L237.819 45.2825L238.235 44.719ZM246.422 47.1877L246.267 47.8703L246.267 47.8704L246.422 47.1877ZM256.235 51.094L256.689 50.5612L256.682 50.5557L256.235 51.094ZM233.141 66.0002L232.74 66.5741L232.742 66.5756L233.141 66.0002ZM227.985 58.5315L228.09 59.2235L236.903 57.8797L236.797 57.1877L236.692 56.4957L227.879 57.8395L227.985 58.5315ZM236.797 57.1877L236.113 57.3378C236.516 59.1717 237.348 60.63 238.647 61.6455L239.078 61.094L239.509 60.5425C238.517 59.7663 237.828 58.6204 237.481 57.0377L236.797 57.1877ZM239.078 61.094L238.653 61.6503C239.964 62.6511 241.739 63.1065 243.891 63.1065V62.4065V61.7065C241.918 61.7065 240.484 61.2869 239.503 60.5377L239.078 61.094ZM243.891 62.4065V63.1065C246.227 63.1065 248.109 62.6813 249.428 61.7226L249.016 61.1565L248.604 60.5904C247.631 61.2984 246.096 61.7065 243.891 61.7065V62.4065ZM249.016 61.1565L249.438 61.7147C250.387 60.997 250.872 60.0078 250.872 58.8127H250.172H249.472C249.472 59.576 249.187 60.1493 248.593 60.5983L249.016 61.1565ZM250.172 58.8127H250.872C250.872 57.9866 250.608 57.2554 250.054 56.6737L249.547 57.1565L249.04 57.6393C249.32 57.9326 249.472 58.3056 249.472 58.8127H250.172ZM249.547 57.1565L250.03 56.6496C249.714 56.349 249.262 56.1085 248.741 55.9036C248.208 55.694 247.548 55.5 246.768 55.3185L246.61 56.0002L246.451 56.682C247.192 56.8547 247.782 57.0305 248.228 57.2063C248.687 57.3868 248.942 57.5473 249.064 57.6634L249.547 57.1565ZM246.61 56.0002L246.76 55.3167C243.23 54.5378 240.359 53.7956 238.142 53.0909C235.909 52.3811 234.394 51.726 233.535 51.1405L233.141 51.719L232.747 52.2975C233.783 53.0037 235.461 53.7079 237.718 54.4252C239.99 55.1476 242.906 55.9002 246.459 56.6838L246.61 56.0002ZM233.141 51.719L233.535 51.1408C231.102 49.48 229.903 47.2072 229.903 44.2502H229.203H228.503C228.503 47.6683 229.929 50.3746 232.746 52.2972L233.141 51.719ZM229.203 44.2502H229.903C229.903 41.5886 230.942 39.3622 233.067 37.5303L232.61 37.0002L232.152 36.4701C229.735 38.5549 228.503 41.1618 228.503 44.2502H229.203ZM232.61 37.0002L233.067 37.5303C235.154 35.7303 238.475 34.7627 243.172 34.7627V34.0627V33.3627C238.327 33.3627 234.607 34.3535 232.152 36.4701L232.61 37.0002ZM243.172 34.0627V34.7627C247.662 34.7627 250.87 35.4985 252.908 36.8631L253.297 36.2815L253.687 35.6999C251.307 34.1061 247.765 33.3627 243.172 33.3627V34.0627ZM253.297 36.2815L252.908 36.8631C254.96 38.2381 256.393 40.2779 257.187 43.0376L257.86 42.844L258.532 42.6504C257.66 39.6184 256.05 37.2832 253.687 35.6999L253.297 36.2815ZM257.86 42.844L257.732 42.1557L249.451 43.6869L249.578 44.3752L249.706 45.0636L257.987 43.5323L257.86 42.844ZM249.578 44.3752L250.253 44.1901C249.86 42.7568 249.094 41.6207 247.944 40.8297L247.547 41.4065L247.15 41.9833C248 42.5673 248.588 43.4103 248.903 44.5603L249.578 44.3752ZM247.547 41.4065L247.949 40.8336C246.805 40.03 245.234 39.6752 243.328 39.6752V40.3752V41.0752C245.089 41.0752 246.331 41.408 247.145 41.9794L247.547 41.4065ZM243.328 40.3752V39.6752C240.987 39.6752 239.158 39.9953 237.98 40.756L238.36 41.344L238.739 41.932C239.562 41.401 241.044 41.0752 243.328 41.0752V40.3752ZM238.36 41.344L237.963 40.7672C237.131 41.3394 236.66 42.1375 236.66 43.1252H237.36H238.06C238.06 42.6546 238.255 42.2653 238.756 41.9208L238.36 41.344ZM237.36 43.1252H236.66C236.66 44.0091 237.088 44.7343 237.815 45.279L238.235 44.719L238.655 44.159C238.214 43.8287 238.06 43.4914 238.06 43.1252H237.36ZM238.235 44.719L237.819 45.2825C238.091 45.4828 238.478 45.67 238.932 45.8515C239.398 46.0375 239.98 46.2349 240.673 46.4439C242.06 46.862 243.927 47.3375 246.267 47.8703L246.422 47.1877L246.577 46.5052C244.251 45.9755 242.42 45.5082 241.077 45.1035C240.406 44.901 239.866 44.7169 239.451 44.5513C239.025 44.3813 238.774 44.2469 238.65 44.1555L238.235 44.719ZM246.422 47.1877L246.267 47.8704C250.934 48.9282 254.067 50.2017 255.787 51.6322L256.235 51.094L256.682 50.5557C254.694 48.9029 251.285 47.5723 246.577 46.5051L246.422 47.1877ZM256.235 51.094L255.781 51.6268C257.432 53.0344 258.285 55.0024 258.285 57.6252H258.985H259.685C259.685 54.6647 258.704 52.2785 256.689 50.5612L256.235 51.094ZM258.985 57.6252H258.285C258.285 60.4407 257.12 62.8686 254.715 64.9384L255.172 65.469L255.629 65.9995C258.307 63.6944 259.685 60.8932 259.685 57.6252H258.985ZM255.172 65.469L254.715 64.9384C252.35 66.9743 248.781 68.0502 243.891 68.0502V68.7502V69.4502C248.959 69.4502 252.911 68.3387 255.629 65.9995L255.172 65.469ZM243.891 68.7502V68.0502C239.457 68.0502 236.03 67.1503 233.539 65.4249L233.141 66.0002L232.742 66.5756C235.544 68.5169 239.283 69.4502 243.891 69.4502V68.7502ZM233.141 66.0002L233.542 65.4264C231.056 63.6902 229.434 61.3432 228.662 58.3564L227.985 58.5315L227.307 58.7065C228.16 62.0115 229.976 64.6436 232.74 66.5741L233.141 66.0002ZM285.922 57.4377L286.038 56.7474L285.422 56.644L285.249 57.2443L285.922 57.4377ZM294.672 58.9065L295.333 59.1381L295.608 58.3537L294.788 58.2162L294.672 58.9065ZM289.328 66.2502L289.726 66.8265L289.727 66.8258L289.328 66.2502ZM267.422 63.094L266.855 63.5046L266.858 63.5085L267.422 63.094ZM268.453 38.7502L268.967 39.2259L268.968 39.2242L268.453 38.7502ZM291.047 38.969L290.52 39.4292L290.521 39.4309L291.047 38.969ZM295.141 53.9377V54.6377H295.828L295.841 53.9507L295.141 53.9377ZM273.141 53.9377V53.2377H272.424L272.441 53.9545L273.141 53.9377ZM275.266 60.0315L274.753 60.5078L274.756 60.5115L275.266 60.0315ZM286.422 48.5627V49.2627H287.139L287.122 48.5455L286.422 48.5627ZM284.453 42.7815L283.943 43.2603L283.946 43.2643L284.453 42.7815ZM273.297 48.5627L272.597 48.5688L272.603 49.2627H273.297V48.5627ZM285.922 57.4377L285.806 58.1281L294.556 59.5968L294.672 58.9065L294.788 58.2162L286.038 56.7474L285.922 57.4377ZM294.672 58.9065L294.011 58.6749C292.928 61.765 291.229 64.0833 288.93 65.6747L289.328 66.2502L289.727 66.8258C292.303 65.0422 294.166 62.4646 295.333 59.1381L294.672 58.9065ZM289.328 66.2502L288.931 65.674C286.657 67.2424 283.773 68.0502 280.235 68.0502V68.7502V69.4502C283.988 69.4502 287.167 68.5914 289.726 66.8265L289.328 66.2502ZM280.235 68.7502V68.0502C274.628 68.0502 270.594 66.2287 267.986 62.6795L267.422 63.094L266.858 63.5085C269.792 67.501 274.299 69.4502 280.235 69.4502V68.7502ZM267.422 63.094L267.989 62.6834C265.907 59.8076 264.841 56.1483 264.841 51.6565H264.141H263.441C263.441 56.373 264.563 60.3387 266.855 63.5046L267.422 63.094ZM264.141 51.6565H264.841C264.841 46.2784 266.244 42.1656 268.967 39.2259L268.453 38.7502L267.94 38.2746C264.912 41.5433 263.441 46.0346 263.441 51.6565H264.141ZM268.453 38.7502L268.968 39.2242C271.706 36.2489 275.152 34.7627 279.36 34.7627V34.0627V33.3627C274.776 33.3627 270.951 35.0016 267.938 38.2763L268.453 38.7502ZM279.36 34.0627V34.7627C284.126 34.7627 287.817 36.3326 290.52 39.4292L291.047 38.969L291.574 38.5088C288.568 35.0637 284.468 33.3627 279.36 33.3627V34.0627ZM291.047 38.969L290.521 39.4309C293.211 42.4935 294.564 47.2769 294.441 53.9247L295.141 53.9377L295.841 53.9507C295.967 47.1403 294.592 41.9445 291.573 38.5071L291.047 38.969ZM295.141 53.9377V53.2377H273.141V53.9377V54.6377H295.141V53.9377ZM273.141 53.9377L272.441 53.9545C272.506 56.6757 273.25 58.8897 274.753 60.5078L275.266 60.0315L275.779 59.5552C274.573 58.2566 273.9 56.4082 273.841 53.9209L273.141 53.9377ZM275.266 60.0315L274.756 60.5115C276.246 62.093 278.12 62.8877 280.328 62.8877V62.1877V61.4877C278.495 61.4877 276.994 60.8449 275.775 59.5515L275.266 60.0315ZM280.328 62.1877V62.8877C281.838 62.8877 283.155 62.4728 284.234 61.6094L283.797 61.0627L283.36 60.5161C282.564 61.1527 281.569 61.4877 280.328 61.4877V62.1877ZM283.797 61.0627L284.234 61.6094C285.325 60.7367 286.093 59.3778 286.595 57.6312L285.922 57.4377L285.249 57.2443C284.793 58.831 284.144 59.8888 283.36 60.5161L283.797 61.0627ZM286.422 48.5627L287.122 48.5455C287.057 45.9001 286.371 43.7799 284.96 42.2987L284.453 42.7815L283.946 43.2643C285.036 44.4081 285.662 46.1421 285.722 48.58L286.422 48.5627ZM284.453 42.7815L284.964 42.3027C283.585 40.8315 281.88 40.0815 279.891 40.0815V40.7815V41.4815C281.485 41.4815 282.822 42.0649 283.943 43.2603L284.453 42.7815ZM279.891 40.7815V40.0815C277.78 40.0815 276.006 40.8603 274.619 42.4083L275.141 42.8752L275.662 43.3422C276.776 42.0985 278.168 41.4815 279.891 41.4815V40.7815ZM275.141 42.8752L274.619 42.4083C273.223 43.9672 272.575 46.0488 272.597 48.5688L273.297 48.5627L273.997 48.5567C273.977 46.285 274.558 44.575 275.662 43.3422L275.141 42.8752ZM273.297 48.5627V49.2627H286.422V48.5627V47.8627H273.297V48.5627Z" fill="white" mask="url(#path-1-outside-1_7_32)"/>
<path d="M46.2745 36.8803V4.00024L4.00006 55.669H36.8802V88.5491L79.1546 36.8803H46.2745Z" stroke="white" stroke-width="8" stroke-linecap="round" stroke-linejoin="round"/>
</svg>
