<svg xmlns="http://www.w3.org/2000/svg" xmlns:xlink="http://www.w3.org/1999/xlink" version="1.1" width="256" height="256" viewBox="0 0 256 256" xml:space="preserve">

<defs>
</defs>
<g style="stroke: none; stroke-width: 0; stroke-dasharray: none; stroke-linecap: butt; stroke-linejoin: miter; stroke-miterlimit: 10; fill: none; fill-rule: nonzero; opacity: 1;" transform="translate(1.4065934065934016 1.4065934065934016) scale(2.81 2.81)" >
	<path d="M 76.887 60.444 h -2.579 c -0.828 0 -1.5 -0.672 -1.5 -1.5 s 0.672 -1.5 1.5 -1.5 h 2.579 C 82.463 57.444 87 52.907 87 47.331 c 0 -5.335 -4.179 -9.764 -9.514 -10.081 l -1.581 -0.094 l 0.18 -1.573 c 0.1 -0.872 0.147 -1.652 0.147 -2.385 c 0 -11.438 -9.305 -20.742 -20.742 -20.742 c -7.165 0 -13.729 3.641 -17.559 9.741 l -0.745 1.187 l -1.235 -0.663 c -2.294 -1.231 -4.889 -1.882 -7.502 -1.882 c -8.491 0 -15.457 6.65 -15.858 15.14 l -0.057 1.196 l -1.179 0.21 C 6.514 38.244 3 42.428 3 47.331 c 0 5.576 4.537 10.113 10.113 10.113 h 3.069 c 0.829 0 1.5 0.672 1.5 1.5 s -0.671 1.5 -1.5 1.5 h -3.069 C 5.883 60.444 0 54.562 0 47.331 c 0 -5.966 4.007 -11.109 9.683 -12.645 c 1.025 -9.537 9.057 -16.849 18.766 -16.849 c 2.649 0 5.282 0.563 7.693 1.637 c 4.46 -6.299 11.596 -10.019 19.349 -10.019 c 13.092 0 23.742 10.651 23.742 23.742 c 0 0.401 -0.013 0.813 -0.037 1.239 C 85.365 35.536 90 40.93 90 47.331 C 90 54.562 84.117 60.444 76.887 60.444 z" style="stroke: none; stroke-width: 1; stroke-dasharray: none; stroke-linecap: butt; stroke-linejoin: miter; stroke-miterlimit: 10; fill: rgb(37,50,74); fill-rule: nonzero; opacity: 1;" transform=" matrix(1 0 0 1 0 0) " stroke-linecap="round" />
	<path d="M 63.052 51.435 c -0.368 -0.742 -1.27 -1.045 -2.011 -0.675 c -0.741 0.368 -1.044 1.269 -0.675 2.011 c 1.184 2.38 1.783 4.945 1.783 7.624 c 0 9.456 -7.693 17.149 -17.149 17.149 s -17.149 -7.693 -17.149 -17.149 c 0 -7.738 5.155 -14.29 12.209 -16.417 c -0.253 0.508 -0.209 1.138 0.171 1.609 c 0.296 0.368 0.73 0.56 1.169 0.56 c 0.33 0 0.663 -0.109 0.94 -0.333 l 3.601 -2.901 c 0.017 -0.014 0.029 -0.032 0.046 -0.046 c 0.05 -0.044 0.097 -0.092 0.141 -0.142 c 0.026 -0.03 0.052 -0.06 0.076 -0.092 c 0.04 -0.054 0.074 -0.112 0.107 -0.171 c 0.018 -0.033 0.038 -0.064 0.053 -0.098 c 0.031 -0.068 0.054 -0.14 0.074 -0.214 c 0.008 -0.029 0.02 -0.056 0.026 -0.085 c 0.023 -0.103 0.036 -0.21 0.036 -0.32 s -0.014 -0.217 -0.036 -0.32 c -0.006 -0.029 -0.018 -0.056 -0.026 -0.085 c -0.021 -0.073 -0.043 -0.145 -0.074 -0.214 c -0.015 -0.034 -0.035 -0.065 -0.053 -0.098 c -0.033 -0.059 -0.067 -0.117 -0.107 -0.171 c -0.024 -0.032 -0.05 -0.062 -0.076 -0.092 c -0.044 -0.051 -0.091 -0.098 -0.141 -0.142 c -0.016 -0.014 -0.029 -0.032 -0.046 -0.046 l -3.601 -2.901 c -0.645 -0.52 -1.589 -0.418 -2.109 0.227 s -0.418 1.589 0.227 2.109 l 0.748 0.603 c -9.301 1.781 -16.356 9.967 -16.356 19.779 c 0 11.11 9.039 20.149 20.149 20.149 s 20.149 -9.039 20.149 -20.149 C 65.149 57.248 64.443 54.233 63.052 51.435 z" style="stroke: none; stroke-width: 1; stroke-dasharray: none; stroke-linecap: butt; stroke-linejoin: miter; stroke-miterlimit: 10; fill: rgb(64,99,163); fill-rule: nonzero; opacity: 1;" transform=" matrix(1 0 0 1 0 0) " stroke-linecap="round" />
	<circle cx="39.51" cy="55.029999999999994" r="2.55" style="stroke: none; stroke-width: 1; stroke-dasharray: none; stroke-linecap: butt; stroke-linejoin: miter; stroke-miterlimit: 10; fill: rgb(64,99,163); fill-rule: nonzero; opacity: 1;" transform="  matrix(1 0 0 1 0 0) "/>
	<path d="M 38.598 68.279 c -0.393 0 -0.785 -0.153 -1.079 -0.458 c -0.576 -0.597 -0.559 -1.546 0.037 -2.121 l 13.119 -12.664 c 0.596 -0.575 1.547 -0.559 2.121 0.037 c 0.575 0.597 0.559 1.546 -0.037 2.121 L 39.64 67.858 C 39.348 68.14 38.973 68.279 38.598 68.279 z" style="stroke: none; stroke-width: 1; stroke-dasharray: none; stroke-linecap: butt; stroke-linejoin: miter; stroke-miterlimit: 10; fill: rgb(64,99,163); fill-rule: nonzero; opacity: 1;" transform=" matrix(1 0 0 1 0 0) " stroke-linecap="round" />
	<circle cx="50.809999999999995" cy="65.87" r="2.55" style="stroke: none; stroke-width: 1; stroke-dasharray: none; stroke-linecap: butt; stroke-linejoin: miter; stroke-miterlimit: 10; fill: rgb(64,99,163); fill-rule: nonzero; opacity: 1;" transform="  matrix(1 0 0 1 0 0) "/>
	<path d="M 67.472 34.742 c -0.828 0 -1.5 -0.671 -1.5 -1.5 c 0 -5.78 -4.702 -10.482 -10.481 -10.482 c -0.828 0 -1.5 -0.671 -1.5 -1.5 s 0.672 -1.5 1.5 -1.5 c 7.434 0 13.481 6.048 13.481 13.482 C 68.972 34.071 68.3 34.742 67.472 34.742 z" style="stroke: none; stroke-width: 1; stroke-dasharray: none; stroke-linecap: butt; stroke-linejoin: miter; stroke-miterlimit: 10; fill: rgb(37,50,74); fill-rule: nonzero; opacity: 1;" transform=" matrix(1 0 0 1 0 0) " stroke-linecap="round" />
	<path d="M 21.859 37.451 c -0.024 0 -0.048 0 -0.072 -0.001 c -0.828 -0.04 -1.467 -0.742 -1.428 -1.569 c 0.205 -4.33 3.758 -7.721 8.089 -7.721 c 0.829 0 1.5 0.671 1.5 1.5 s -0.671 1.5 -1.5 1.5 c -2.727 0 -4.963 2.136 -5.092 4.862 C 23.319 36.825 22.655 37.451 21.859 37.451 z" style="stroke: none; stroke-width: 1; stroke-dasharray: none; stroke-linecap: butt; stroke-linejoin: miter; stroke-miterlimit: 10; fill: rgb(37,50,74); fill-rule: nonzero; opacity: 1;" transform=" matrix(1 0 0 1 0 0) " stroke-linecap="round" />
</g>
</svg>